HIERARCHY
ROOT Hips
{
     OFFSET 1.88212 96.90440 -13.34250
     CHANNELS 6 Xposition Yposition Zposition Zrotation Xrotation Yrotation
     JOINT Spine
     {
          OFFSET 0.00000 11.89050 0.00000
          CHANNELS 3 Zrotation Xrotation Yrotation
          JOINT Spine1
          {
               OFFSET -0.00000 25.65740 0.12766
               CHANNELS 3 Zrotation Xrotation Yrotation
               JOINT HEad
               {
                    OFFSET 0.00000 8.73416 0.01134
                    CHANNELS 3 Zrotation Xrotation Yrotation
                    End Site
                    {
                         OFFSET -0.29000 12.77420 2.51395
                    }
               }
               JOINT LeftShoulder1
               {
                    OFFSET 8.99000 -0.36225 -0.22000
                    CHANNELS 3 Zrotation Xrotation Yrotation
                    JOINT LeftArm
                    {
                         OFFSET 10.28270 -0.00338 0.32212
                         CHANNELS 3 Zrotation Xrotation Yrotation
                         JOINT LeftForeArm
                         {
                              OFFSET 32.76690 0.09914 -1.42434
                              CHANNELS 3 Zrotation Xrotation Yrotation
                              JOINT LeftHand
                              {
                                   OFFSET 27.56430 0.08536 1.02216
                                   CHANNELS 3 Zrotation Xrotation Yrotation
                                   End Site
                                   {
                                        OFFSET 16.74430 -0.60000 1.50291
                                   }
                              }
                         }
                    }
               }
               JOINT RightShoulder
               {
                    OFFSET -8.99000 -0.36225 -0.22000
                    CHANNELS 3 Zrotation Xrotation Yrotation
                    JOINT RightArm
                    {
                         OFFSET -10.28270 -0.00338 0.32212
                         CHANNELS 3 Zrotation Xrotation Yrotation
                         JOINT RightForeArm
                         {
                              OFFSET -32.89710 0.09914 -1.42434
                              CHANNELS 3 Zrotation Xrotation Yrotation
                              JOINT RightHand
                              {
                                   OFFSET -27.49210 0.08536 1.02216
                                   CHANNELS 3 Zrotation Xrotation Yrotation
                                   End Site
                                   {
                                        OFFSET -16.63120 -0.60000 1.50291
                                   }
                              }
                         }
                    }
               }
          }
     }
     JOINT LeftUpLeg
     {
          OFFSET 8.94580 -8.66707 0.10165
          CHANNELS 3 Zrotation Xrotation Yrotation
          JOINT LeftLeg
          {
               OFFSET 0.00000 -44.42270 1.37270
               CHANNELS 3 Zrotation Xrotation Yrotation
               JOINT LeftFoot
               {
                    OFFSET -0.25355 -42.09240 -1.46059
                    CHANNELS 3 Zrotation Xrotation Yrotation
                    JOINT LeftToes
                    {
                         OFFSET -0.04000 -4.41509 8.49910
                         CHANNELS 3 Zrotation Xrotation Yrotation
                         End Site
                         {
                              OFFSET 0.08000 -0.04745 9.77979
                         }
                    }
               }
          }
     }
     JOINT RightUpLeg
     {
          OFFSET -8.94580 -8.66707 0.10165
          CHANNELS 3 Zrotation Xrotation Yrotation
          JOINT RightLeg
          {
               OFFSET 0.00000 -44.42270 1.37270
               CHANNELS 3 Zrotation Xrotation Yrotation
               JOINT RightFoot
               {
                    OFFSET 0.25355 -42.09240 -1.46059
                    CHANNELS 3 Zrotation Xrotation Yrotation
                    JOINT RightToes
                    {
                         OFFSET 0.04000 -4.41509 8.49910
                         CHANNELS 3 Zrotation Xrotation Yrotation
                         End Site
                         {
                              OFFSET -0.08000 -0.13745 9.77979
                         }
                    }
               }
          }
     }
}
MOTION
Frames: 10
Frame Time: 0.01667
85.24949 87.55739 26.43210 6.85354 11.85602 -180.20044 8.92573 18.03962 -5.76193 -0.02306 0.02225 -0.01790 -9.53987 -0.12540 19.56802 -13.07100 14.41670 4.96894 -132.53947 -57.83181 -110.64256 -22.03390 62.14442 -90.81857 21.84503 4.68794 -9.48571 11.28408 16.52224 0.17110 80.69354 3.59821 76.64822 6.86394 28.94403 104.58781 18.86320 8.11748 2.42578 34.29053 -4.78856 -16.59010 -29.57491 -1.60250 72.38361 -5.80547 0.00242 0.00453 14.19407 -13.95618 -57.87430 -9.95621 -0.81330 -1.79321 28.44273 23.04196 -20.46570 -30.00363 -0.00105 0.00371 7.61195 -43.79647 27.82174 
84.95479 87.60439 26.16109 6.38983 11.82705 -179.91840 9.25969 17.47919 -3.80946 -0.02003 0.01974 -0.01849 -9.08024 0.06204 17.35712 -13.00502 15.06289 2.72952 -129.80553 -57.60919 -108.34325 -21.29710 60.92269 -90.48180 22.17253 3.16090 -9.68772 11.18381 16.24569 -1.91571 80.80714 3.17722 75.87947 6.88165 29.23056 104.93486 18.79531 8.46988 2.50057 34.26107 -4.54641 -18.15574 -30.55184 -3.00185 72.76013 -5.04317 0.00151 0.00416 13.85465 -14.58138 -57.31893 -10.36967 -1.59193 -3.36405 27.76550 25.31059 -19.62287 -30.00435 -0.00271 0.00294 7.67424 -45.20436 27.09959 
84.67290 87.59001 25.93129 5.85360 11.85611 -179.48315 8.52894 18.28055 -1.63362 -0.07678 0.10200 0.00651 -7.61386 -0.94766 14.74683 -11.77283 14.37893 0.26276 -126.54741 -57.08892 -105.60667 -20.57309 59.47532 -90.12987 21.69038 4.52162 -10.15774 12.17792 14.64122 -3.89042 80.87297 2.66800 75.04104 6.99776 29.61839 105.49940 18.67554 8.85151 3.04920 34.07810 -4.43558 -19.54060 -31.44341 -4.12019 72.99451 -4.30577 0.00093 0.00365 13.56676 -15.08879 -56.87511 -10.90227 -2.56264 -3.62106 27.82348 27.18686 -20.35755 -30.00491 -0.00430 0.00213 7.61833 -46.65224 26.27734 
84.41811 87.51711 25.76675 5.24447 11.94200 -178.92168 7.61929 19.07426 0.16566 -0.01172 0.00821 -0.02027 -6.28500 -1.70263 12.44227 -10.99549 13.79173 -1.40952 -115.90705 -54.49282 -98.13115 -17.52762 54.16785 -89.89884 21.81662 3.86657 -10.28411 13.00580 13.30797 -5.48193 80.94059 2.00661 74.18069 7.19955 30.04115 106.18455 18.61620 9.13893 3.09397 33.57767 -4.42844 -19.65343 -32.04675 -4.32404 72.22162 -3.66337 0.00098 0.00189 13.32774 -15.42938 -56.55568 -11.52079 -3.57144 -2.67985 28.60138 28.58881 -22.49777 -30.00520 -0.00576 0.00134 7.48450 -48.12041 25.39920 
84.19520 87.39933 25.66640 4.56800 12.07475 -178.25385 6.57249 19.84049 1.61463 -0.00512 0.00304 -0.02100 -4.92768 -2.43026 10.33385 -10.16168 13.09317 -2.80975 -108.84718 -52.27305 -93.15830 -15.68674 50.20304 -89.78504 21.42817 4.85090 -10.50443 13.84955 11.99766 -6.74091 80.99892 1.23430 73.34053 7.46571 30.45700 106.92688 18.52349 9.42229 3.39522 32.82542 -4.52889 -18.61204 -32.46890 -3.70912 70.60117 -3.04592 -0.00013 0.00102 13.11149 -15.70113 -56.37196 -12.23881 -4.41721 -1.75463 29.53550 29.83481 -24.71368 -30.00557 -0.00681 0.00077 7.29242 -49.57090 24.51579 
84.00274 87.25317 25.61342 3.83568 12.23755 -177.49687 5.42611 20.57027 2.74153 -0.00357 0.00227 -0.02005 -3.60458 -3.04651 8.45625 -9.31718 12.38001 -3.98507 -104.00701 -50.45812 -89.69315 -14.54445 47.13333 -89.73611 21.33545 4.63708 -10.46673 14.64777 10.81169 -7.68147 81.05579 0.38944 72.54869 7.76971 30.84451 107.66827 18.47180 9.62351 3.38630 31.88365 -4.72918 -16.52130 -32.68243 -2.33002 68.25060 -2.47906 -0.00096 0.00022 12.89445 -15.92540 -56.33923 -13.02547 -5.11222 -0.84452 30.56865 30.88296 -26.97486 -30.00618 -0.00738 0.00046 7.05189 -50.96806 23.68096 
83.84138 87.09105 25.58679 3.06643 12.41195 -176.66806 4.21837 21.25561 3.57523 -0.00260 0.00189 -0.01891 -2.33102 -3.55032 6.80887 -8.50122 11.67913 -4.93875 -100.56544 -48.92545 -87.18656 -13.80174 44.69576 -89.69431 20.90670 5.33646 -10.52771 15.39082 9.76449 -8.33616 81.12049 -0.47890 71.81996 8.08528 31.19370 108.38033 18.41446 9.79393 3.52897 31.00711 -5.02636 -14.58377 -32.87173 -0.90722 66.17226 -1.95957 -0.00203 -0.00025 12.65677 -16.15659 -56.45560 -13.84412 -5.66885 0.04967 31.64706 31.72094 -29.25075 -30.00696 -0.00760 0.00031 6.78559 -52.29829 22.94513 
83.71106 86.92176 25.56648 2.28188 12.58242 -175.78596 2.98362 21.89149 4.14679 -0.00186 0.00175 -0.01764 -1.11804 -3.94681 5.38622 -7.73053 11.00890 -5.67348 -98.04855 -47.57840 -85.33779 -13.29762 42.70341 -89.61954 20.68604 5.32873 -10.46312 16.07883 8.85827 -8.74027 81.19348 -1.32010 71.16170 8.38703 31.49358 109.03849 18.40769 9.90783 3.48286 30.18430 -5.39261 -12.79827 -33.05326 0.54678 64.35526 -1.48000 -0.00299 -0.00034 12.38567 -16.44192 -56.69485 -14.65919 -6.09811 0.92664 32.72731 32.35707 -31.51179 -30.00775 -0.00768 0.00026 6.52521 -53.55492 22.34777 
83.61058 86.75215 25.53840 1.50278 12.73854 -174.87030 1.75083 22.47660 4.48908 -0.00126 0.00179 -0.01627 0.02466 -4.24112 4.17944 -7.01002 10.37920 -6.20072 -96.17397 -46.36316 -83.95919 -12.93430 41.05698 -89.50941 20.29230 5.83920 -10.47924 16.72251 8.08492 -8.93501 81.25854 -2.08358 70.57517 8.65102 31.72887 109.63467 18.42369 10.01297 3.52469 29.40493 -5.80452 -11.16487 -33.23220 2.02033 62.78510 -1.03594 -0.00368 -0.00020 12.07734 -16.81133 -57.02558 -15.44195 -6.41043 1.78513 33.77841 32.80994 -33.72704 -30.00836 -0.00779 0.00029 6.29895 -54.72748 21.89310 
83.53892 86.58838 25.49339 0.74966 12.87535 -173.94180 0.54567 23.01219 4.63596 -0.00073 0.00197 -0.01482 1.08918 -4.43752 3.17678 -6.33558 9.79400 -6.53786 -94.77204 -45.26559 -82.92602 -12.66678 39.69265 -89.36903 20.06989 5.92915 -10.43283 17.33523 7.43121 -8.95880 81.29541 -2.73160 70.06028 8.85806 31.88827 110.16052 18.47971 10.09875 3.44607 28.66828 -6.24340 -9.68521 -33.40393 3.50061 61.44672 -0.62893 -0.00406 0.00004 11.73736 -17.27454 -57.42233 -16.20677 -6.61648 2.61924 34.96793 33.16016 -35.98247 -30.00074 -0.00332 0.00058 6.00126 -55.90598 21.52845 
